<?xml version="1.0" encoding="utf-8"?>
<?xml-stylesheet type="text/xsl" href="rss1.xsl"?>
<rss version="2.0" xmlns:atom="http://www.w3.org/2005/Atom" xmlns:content="http://purl.org/rss/1.0/modules/content/" xmlns:dc="http://purl.org/dc/elements/1.1/" xmlns:media="http://search.yahoo.com/mrss/">
<channel>
 <title>Getty</title>
 <link>http://www.gettyimg.com/</link>
 <atom:link href="http://www.gettyimg.com/" rel="self" type="application/rss+xml" />

 
                <item>
                <title><![CDATA[【Albums (lossless)】FLAC - Future &amp; Metro Boomin - We Don't Trust You [Tidal Lossless Music FLAC 16bit/44.1kHz]]]></title>
                <link><![CDATA[https://sharemania.us/threads/future-metro-boomin-we-dont-trust-you-tidal-lossless-music-flac-16bit-44-1khz.240891/]]></link>
                <description><![CDATA[<article>
<blockquote class="messageText SelectQuoteContainer ugc baseHtml">
<b>Future &amp; Metro Boomin - We Don't Trust You [Tidal Lossless Music FLAC 16bit/44.1kHz]</b><br>
<br>
<img src="https://imgur.com/FSXYsqL.jpg" class="bbCodeImage LbImage" alt="[​IMG]" data-url="https://imgur.com/FSXYsqL.jpg" style=""><br>
<br>
<b>No. of tracks: 17<br>
Quality: 16bit/44.1kHZ<br>
Size: 351MB</b><br>
<br>
<div class="bbCodeBlock bbCodeVfcHH HiddenContent">
<div class="attribution type">Hidden Content:</div>
<blockquote>You must reply before you can see the hidden data contained here.</blockquote>
</div><b>How to download from filesadmin:<br>
<br>
1. Open the link and scroll down the page.<br>
2. On the left hand side, you'll see a "DOWNLOAD FILE" link after waiting for 10 seconds.<br>
3. Close any pop-up ads in case they appear.<br>
4. On the next page, scroll down and click on the "DOWNLOAD FILE" to start the download.<br>
5. Enjoy!! Let me know if any issues come up <img src="styles/default/xenforo/smilies/big_smile-48.png" class="mceSmilie" alt=":)" title="Smile    :)"></b>
<div class="messageTextEndMarker">&nbsp;</div>
</blockquote>
</article>]]></description>
                <author><![CDATA[abby0511]]></author>
                </item>

                
                <item>
                <title><![CDATA[【MASTER &amp; MASTER RIP】MASTER - Pharrell Williams, Miley Cyrus – Doctor [Work It Out] (MasterRip AVC 4K) – 2024]]></title>
                <link><![CDATA[https://sharemania.us/threads/pharrell-williams-miley-cyrus-%E2%80%93-doctor-work-it-out-masterrip-avc-4k-%E2%80%93-2024.240894/]]></link>
                <description><![CDATA[<article>
<blockquote class="messageText SelectQuoteContainer ugc baseHtml">
<div style="text-align: center"><span style="font-family: 'Times New Roman'"><img src="https://i.imgur.com/4pwKYw5.jpeg" class="bbCodeImage LbImage" alt="[​IMG]" data-url="https://i.imgur.com/4pwKYw5.jpeg" style=""><br>
<span style="font-size: 15px">
<div class="ToggleTriggerAnchor bbCodeSpoilerContainer">
<button type="button" class="button bbCodeSpoilerButton ToggleTrigger Tooltip JsOnly" data-target="> .SpoilerTarget"><span>Spoiler: <span class="SpoilerTitle">MediaInfo</span></span></button>
<div class="SpoilerTarget bbCodeSpoilerText">General<br>
Complete name : C:\Pharrell Williams, Miley Cyrus – Doctor [Work It Out] (MasterRip AVC 4K) – 2024.mp4<br>
Format : MPEG-4<br>
Format profile : Base Media / Version 2<br>
Codec ID : mp42 (mp42/mp41)<br>
File size : 1.10 GiB<br>
Duration : 3 min 8 s<br>
Overall bit rate mode : Variable<br>
Overall bit rate : 50.0 Mb/s<br>
Encoded date : UTC 2024-03-28 09:42:55<br>
Tagged date : UTC 2024-03-28 09:43:26<br>
TIM : 00:00:00:00<br>
TSC : 24000<br>
TSZ : 1001<br>
<br>
Video<br>
ID : 1<br>
Format : AVC<br>
Format/Info : Advanced Video Codec<br>
Format profile : High@L5.1<br>
Format settings : CABAC / 1 Ref Frames<br>
Format settings, CABAC : Yes<br>
Format settings, Reference frames : 1 frame<br>
Format settings, GOP : M=1, N=30<br>
Codec ID : avc1<br>
Codec ID/Info : Advanced Video Coding<br>
Duration : 3 min 8 s<br>
Bit rate : 49.7 Mb/s<br>
Width : 3 840 pixels<br>
Height : 2 160 pixels<br>
Display aspect ratio : 16:9<br>
Frame rate mode : Constant<br>
Frame rate : 23.976 (24000/1001) FPS<br>
Color space : YUV<br>
Chroma subsampling : 4:2:0<br>
Bit depth : 8 bits<br>
Scan type : Progressive<br>
Bits/(Pixel*Frame) : 0.250<br>
Stream size : 1.09 GiB (99%)<br>
Language : English<br>
Encoded date : UTC 2024-03-28 09:42:55<br>
Tagged date : UTC 2024-03-28 09:42:55<br>
Codec configuration box : avcC<br>
<br>
Audio<br>
ID : 2<br>
Format : AAC LC<br>
Format/Info : Advanced Audio Codec Low Complexity<br>
Codec ID : mp4a-40-2<br>
Duration : 3 min 8 s<br>
Source duration : 3 min 8 s<br>
Bit rate mode : Variable<br>
Bit rate : 317 kb/s<br>
Maximum bit rate : 417 kb/s<br>
Channel(s) : 2 channels<br>
Channel layout : L R<br>
Sampling rate : 48.0 kHz<br>
Frame rate : 46.875 FPS (1024 SPF)<br>
Compression mode : Lossy<br>
Stream size : 7.12 MiB (1%)<br>
Source stream size : 7.12 MiB (1%)<br>
Language : English<br>
Encoded date : UTC 2024-03-28 09:42:55<br>
Tagged date : UTC 2024-03-28 09:42:55</div>
</div>
<div class="bbCodeBlock bbCodeVfcHH HiddenContent">
<div class="attribution type">Hidden Content:</div>
<blockquote>You must either reply or click 'Like' to see the hidden information contained here.</blockquote>
</div></span></span>​</div>
<div class="messageTextEndMarker">&nbsp;</div>
</blockquote>
</article>]]></description>
                <author><![CDATA[mariellisaa]]></author>
                </item>

                </channel></rss>